<mxfile host="app.diagrams.net" modified="2024-04-19T12:30:19.002Z" agent="Mozilla/5.0 (Windows NT 10.0; Win64; x64) AppleWebKit/537.36 (KHTML, like Gecko) Chrome/123.0.0.0 Safari/537.36" version="24.2.1" etag="X1q44FvhfRYbw-rK9TVS" type="github">
  <diagram name="Page-1" id="B-MilMu_Nwbh0RtR_7gp">
    <mxGraphModel>
      <root>
        <mxCell id="0" />
        <mxCell id="1" parent="0" />
      </root>
    </mxGraphModel>
  </diagram>
</mxfile>
